{"title":"Casino Jack 2010 DVDRip XVID AC3 HQ Hive-CM8","uid":5972019,"size":1753112576,"categoryP":"video","categoryS":"movies","magnet":"?xt=urn:btih:f92d3189b0a99d1115aff63f4988527b2a4903da&amp;dn=Casino+Jack+2010+DVDRip+XVID+AC3+HQ+Hive-CM8&amp;tr=udp%3A%2F%2Ftracker.openbittorrent.com%3A80&amp;tr=udp%3A%2F%2Fopen.demonii.com%3A1337&amp;tr=udp%3A%2F%2Ftracker.coppersurfer.tk%3A6969&amp;tr=udp%3A%2F%2Fexodus.desync.com%3A6969","seeders":2,"leechers":0,"uploader":"HeroMaster","files":-1,"time":1290327635,"description":"Casino Jack 2010 DVDRip XVID AC3 HQ Hive-CM8\n\nSource: DVD-R no Clue about origin its not a DVDSCR, has no watermarks no B/W scenes, no property msgs and 5.1 eng audio. like a retail dvd.\n\nVideo: 720x400 @bitrate 1800 2pass\nAudio: English 5.1 @448\nSample: Not included\n\n &lt;a href=&quot;\nhttp://www.imdb.com/title/tt1194417/&quot; rel=&quot;nofollow&quot; target=&quot;_NEW&quot;&gt;\nhttp://www.imdb.com/title/tt1194417/&lt;/a&gt;\n\n\nINFORMATION:\n\nGeneral\nComplete name                    : Casino.Jack.2010.DVDRip.XVID.AC3.HQ.Hive-CM8.avi\nFormat                           : AVI\nFormat/Info                      : Audio Video Interleave\nFile size                        : 1.63 GiB\nDuration                         : 1h 43mn\nOverall bit rate                 : 2 256 Kbps\nWriting application              : Nandub v1.0rc2\nWriting library                  : Nandub build 1853/release\n\nVideo\nID                               : 0\nFormat                           : MPEG-4 Visual\nFormat profile                   : Advanced Simple@L5\nFormat settings, BVOP            : Yes\nFormat settings, QPel            : Yes\nFormat settings, GMC             : No warppoints\nFormat settings, Matrix          : Default (H.263)\nMuxing mode                      : Packed bitstream\nCodec ID                         : XVID\nCodec ID/Hint                    : XviD\nDuration                         : 1h 43mn\nBit rate                         : 1 798 Kbps\nWidth                            : 720 pixels\nHeight                           : 400 pixels\nDisplay aspect ratio             : 16:9\nFrame rate                       : 25.000 fps\nColor space                      : YUV\nChroma subsampling               : 4:2:0\nBit depth                        : 8 bits\nScan type                        : Progressive\nBits/(Pixel*Frame)               : 0.250\nStream size                      : 1.30 GiB (80%)\nWriting library                  : XviD 1.2.1 (UTC 2008-12-04)\n\nAudio\nID                               : 1\nFormat                           : AC-3\nFormat/Info                      : Audio Coding 3\nMode extension                   : CM (complete main)\nCodec ID                         : 2000\nDuration                         : 1h 43mn\nBit rate mode                    : Constant\nBit rate                         : 448 Kbps\nChannel(s)                       : 6 channels\nChannel positions                : Front: L C R, Side: L R, LFE\nSampling rate                    : 48.0 KHz\nBit depth                        : 16 bits\nStream size                      : 332 MiB (20%)\nAlignment                        : Split accross interleaves\nInterleave, duration             : 40 ms (1.00 video frame)\nInterleave, preload duration     : 500 ms\n\n\nScreenshots:\n\n &lt;a href=&quot;\nhttp://www.postimg.com/image/25000/24533.jpg&quot; rel=&quot;nofollow&quot; target=&quot;_NEW&quot;&gt;\nhttp://www.postimg.com/image/25000/24533.jpg&lt;/a&gt;\n &lt;a href=&quot;\nhttp://www.postimg.com/image/25000/24534.jpg&quot; rel=&quot;nofollow&quot; target=&quot;_NEW&quot;&gt;\nhttp://www.postimg.com/image/25000/24534.jpg&lt;/a&gt;\n &lt;a href=&quot;\nhttp://www.postimg.com/image/25000/24535.jpg&quot; rel=&quot;nofollow&quot; target=&quot;_NEW&quot;&gt;\nhttp://www.postimg.com/image/25000/24535.jpg&lt;/a&gt;\n\n\nENJOY!","torrent":{"xt":"urn:btih:f92d3189b0a99d1115aff63f4988527b2a4903da","amp;dn":"Casino+Jack+2010+DVDRip+XVID+AC3+HQ+Hive-CM8","amp;tr":["udp%3A%2F%2Ftracker.openbittorrent.com%3A80","udp%3A%2F%2Fopen.demonii.com%3A1337","udp%3A%2F%2Ftracker.coppersurfer.tk%3A6969","udp%3A%2F%2Fexodus.desync.com%3A6969"],"infoHash":"f92d3189b0a99d1115aff63f4988527b2a4903da","infoHashBuffer":{"type":"Buffer","data":[249,45,49,137,176,169,157,17,21,175,246,63,73,136,82,123,42,73,3,218]},"announce":[],"urlList":[]}}